<svg width="250" height="13" viewBox="0 0 250 13" fill="none" xmlns="http://www.w3.org/2000/svg">
<path d="M21.4082 12.2339C22.404 12.2339 21.9061 11.5718 22.072 11.158C23.2337 10.9925 22.6529 11.6546 22.9848 11.9856C23.7316 11.8201 24.3124 11.158 24.8103 11.158C24.8933 11.2408 24.9763 11.3235 24.8103 11.4891C25.5571 10.9097 27.1337 11.4063 28.0464 10.7442C28.1294 10.827 28.1294 10.827 28.1294 10.9097C27.9635 10.5787 27.9635 10.2477 27.9635 9.9994C28.3783 9.9994 28.7932 9.58561 28.9592 9.9994C28.7103 9.9994 28.7103 10.1649 28.5443 10.3304L28.9592 10.0822C29.3741 10.7442 28.3783 10.3304 28.3783 10.827C29.2911 10.5787 30.2868 9.9994 31.0336 10.1649C31.1996 10.827 29.457 10.4132 30.3698 10.9925L29.2911 10.827C30.1209 11.8201 28.6273 10.7442 29.457 11.8201C30.8677 11.9856 31.0336 11.4063 32.4442 11.5718C32.7762 11.2408 32.2783 11.0753 32.6102 10.6615C34.6017 9.91665 34.2697 12.1511 35.6804 11.2408C36.0123 10.827 36.1782 9.9994 37.174 10.3304L36.8421 11.0753C38.1697 11.0753 37.5889 9.9994 38.9995 10.4132C38.7505 10.7442 37.9208 10.7442 38.1697 10.827C39.1654 11.3235 38.8335 10.4132 39.4973 10.3304L39.6633 10.9925C41.0739 10.827 42.6505 10.2477 44.2271 9.9994C44.1441 10.1649 43.8952 10.4132 44.31 10.5787C46.3015 10.0822 48.6249 10.3304 50.6163 10.496L51.2802 9.91665C51.4461 9.91665 51.6121 10.1649 51.4461 10.2477C52.1929 10.4132 51.4461 9.91665 51.778 9.66837C52.1929 9.58561 52.3589 9.91665 52.1099 10.0822C53.4376 9.50285 55.8439 8.75803 57.2545 9.17182L57.0056 9.33734C58.0843 9.50285 58.1673 8.09596 59.163 8.50975L58.9971 8.59251C61.4034 8.59251 63.9757 7.84768 65.8012 8.59251C66.0502 7.76492 68.2076 8.75802 68.2076 7.68216C69.6182 8.09596 69.2033 8.34423 71.1948 8.59251C71.6926 8.59251 71.8586 7.84768 72.5224 7.68216L72.6054 8.26147L73.4352 7.5994L73.933 8.26147L74.5139 7.93044C74.265 7.93044 74.016 7.68216 74.016 7.51665C74.9288 7.18561 76.3394 7.76492 76.3394 8.09596L78.4968 7.43389C78.4968 7.68216 78.0819 7.76492 77.833 7.93044C78.9117 7.26837 78.0819 8.50975 79.0777 7.93044C78.9117 7.84768 79.1606 7.5994 79.1606 7.43389C79.7415 7.76492 80.9032 7.68216 81.8159 7.43389L81.65 7.84768C83.3095 7.84768 85.052 7.43389 86.8775 7.35113C86.2137 7.18561 86.2967 6.52354 86.8775 6.44078L87.1265 7.02009C87.4584 6.6063 86.5456 6.85458 87.2095 6.35802C87.8733 6.35802 87.7073 7.02009 87.2924 7.26837L88.1222 7.02009C88.2052 7.18561 87.9563 7.26837 87.9563 7.51665C88.2882 7.10285 89.4499 8.0132 89.8647 7.35113L89.9477 7.51665C91.7732 7.43389 92.603 7.18561 94.0136 7.02009C94.0136 6.52354 94.5945 6.6063 95.0094 6.10975C96.0881 6.19251 97.3327 6.6063 98.6604 6.44078C99.5731 6.10975 98.9093 5.94423 99.3242 5.6132C99.4072 6.10975 100.735 5.94423 100.071 6.35802C101.648 6.19251 102.062 6.19251 104.054 5.69596C103.805 5.53044 103.556 5.44768 103.722 5.28216C104.054 5.1994 104.552 5.44768 104.469 5.69596L104.386 5.77871C106.626 4.95113 109.613 6.93734 111.356 5.86147L111.19 5.94423L113.015 5.36492C113.845 5.44768 112.518 5.77871 113.181 6.02699C115.173 5.1994 116.335 6.02699 117.911 5.44768C119.239 6.85458 122.392 5.1994 124.134 6.10975L124.052 5.77871C124.466 5.44768 124.549 5.94423 124.881 6.02699C124.798 5.77871 124.383 5.69596 124.632 5.53044C128.366 5.03389 132.349 5.86147 136.166 6.10975C137.577 6.19251 136.913 4.37182 138.739 5.1994L138.241 5.86147C141.062 5.11665 144.049 5.86147 146.787 5.1994C146.621 5.36492 146.621 5.53044 146.372 5.53044C146.953 5.94423 148.53 5.53044 148.53 5.1994C148.945 5.28216 148.613 5.53044 148.862 5.69596C149.443 5.94423 150.355 5.11665 150.687 5.6132C150.77 5.69596 150.521 5.77871 150.438 5.77871C150.853 5.53044 152.181 5.86147 151.849 5.36492C152.928 5.6132 153.84 5.11665 154.67 5.44768C155.251 4.86837 156.413 5.77871 156.662 4.95113C156.579 5.77871 158.487 5.6132 159.151 5.28216C158.902 5.53044 159.732 5.53044 159.483 5.94423C160.23 5.94423 160.894 5.77871 160.811 5.36492C162.138 6.44078 163.632 4.62009 164.379 5.94423C166.619 5.53044 168.693 5.28216 170.685 5.11665C170.602 5.94423 168.445 5.11665 168.528 6.02699C170.436 5.69596 171.598 5.03389 173.423 5.28216C173.921 5.44768 173.174 5.6132 172.925 5.77871C174.834 5.53044 176.576 5.94423 178.319 5.6132C178.319 5.69596 178.153 5.77871 177.987 5.86147C178.319 5.86147 178.734 6.02699 178.734 5.6132L178.402 5.69596C177.904 5.11665 179.729 4.53734 179.812 4.28906C179.232 5.36492 181.472 4.62009 180.559 5.94423C180.808 5.86147 181.057 5.69596 181.057 5.44768C181.389 5.53044 181.472 5.69596 181.14 5.94423C182.302 5.77871 181.97 5.36492 183.049 5.36492C183.049 5.53044 182.8 5.6132 182.717 5.86147C183.298 5.53044 183.878 5.1994 184.791 5.36492C184.708 5.44768 184.791 5.6132 184.542 5.6132C186.119 5.6132 187.28 4.78561 188.94 5.1994C188.359 5.94423 189.521 5.53044 189.604 6.19251L190.517 6.02699L190.019 5.6132C190.848 5.69596 191.595 5.1994 192.259 5.44768L191.678 5.69596L193.172 5.6132L192.342 5.28216C193.172 4.95113 192.259 4.37182 193.338 4.62009C193.089 4.70285 194.168 4.70285 194.582 5.11665C194.997 4.95113 195.412 4.70285 195.993 4.95113C196.159 5.1994 195.827 5.69596 195.91 5.86147C196.325 5.28216 197.819 5.77871 198.316 5.1994C198.151 5.36492 198.151 5.69596 198.151 5.77871L198.482 5.28216C198.814 5.44768 198.897 5.53044 198.814 5.86147C199.976 6.02699 198.482 4.95113 199.81 5.44768C199.727 5.44768 199.727 5.53044 199.561 5.6132C200.889 5.86147 202.216 5.44768 203.378 5.77871C203.71 6.52354 202.299 5.86147 202.631 6.52354C204.457 6.52354 206.365 5.86147 208.108 6.19251L207.776 6.10975C208.108 5.11665 209.021 6.68906 209.933 6.27527C209.684 6.35803 209.601 6.77182 209.684 6.68906C210.846 6.93734 212.091 6.6063 213.916 6.44078L213.667 6.68906C214.331 6.93734 215.493 6.93734 216.24 7.10285C216.489 6.85458 216.903 6.93734 216.655 6.52354C218.895 8.17871 221.135 6.10975 223.127 7.51665C222.878 7.51665 222.546 7.68216 222.712 7.68216L224.454 7.5994C224.371 7.18561 224.288 7.35113 223.874 6.93734C224.122 6.68906 224.62 6.52354 225.035 6.6063C224.205 6.85458 224.952 7.26837 225.284 7.5994C225.201 7.43389 225.367 7.35113 225.367 7.18561C226.197 8.0132 225.616 6.35803 226.778 6.93734L226.944 7.10285C227.442 7.02009 227.856 6.77182 228.354 6.85458C228.52 7.35113 227.856 7.02009 227.774 7.43389C228.52 7.43389 229.267 6.6063 229.848 7.18561C229.516 7.26837 229.101 7.26837 228.769 7.35113C229.433 8.0132 229.516 7.84768 230.014 8.0132H229.931L231.093 8.42699L230.844 8.26147C231.839 7.02009 232.669 8.17871 233.914 7.43389C232.669 8.09596 233.665 7.84768 233.499 8.42699C233.748 8.59251 234.246 8.84078 234.08 9.0063C234.661 8.59251 234.993 9.42009 235.822 8.84078C235.822 9.0063 236.403 8.92354 236.237 9.33734C236.984 9.25458 236.071 9.0063 236.154 8.75803C237.316 8.26147 238.727 9.75113 240.469 9.08906C241.88 8.84078 242.212 8.26147 243.539 8.09596C243.954 8.42699 243.124 8.75803 243.124 8.75803C243.788 9.08906 244.369 9.08906 245.033 9.0063C244.867 9.17182 245.033 9.33734 245.199 9.50285C245.78 9.50285 245.614 8.84078 246.278 9.25458C246.112 9.42009 245.946 9.75113 245.697 9.91665C246.36 9.83389 247.024 9.58561 247.688 9.42009C247.854 9.75113 247.273 9.83389 247.024 9.9994C247.771 9.91665 248.933 9.91665 249.265 9.42009L248.85 9.17182C249.099 9.17182 248.933 9.58561 248.767 9.66837C248.103 9.9994 247.854 9.42009 247.854 9.17182L248.352 9.08906C248.02 7.93044 246.443 9.08906 245.531 8.92354L246.029 8.17871L245.033 8.75803C244.867 8.50975 244.784 8.09596 245.199 8.0132C244.535 7.51665 244.535 8.26147 244.037 7.76492C243.954 7.68216 244.037 7.68216 244.037 7.5994L243.373 7.93044C243.539 7.76492 243.29 7.35113 243.705 7.51665C242.544 6.93734 241.714 7.84768 241.382 7.26837H241.465C239.805 7.35113 241.216 7.84768 239.971 8.34423L239.307 6.85458L239.058 7.43389C238.893 7.43389 238.561 7.35113 238.644 7.10285C237.98 7.43389 238.727 7.35113 238.312 7.68216C237.565 7.10285 236.071 7.68216 235.988 6.77182C235.656 7.18561 236.735 7.18561 235.822 7.43389C235.656 6.44078 234.827 7.51665 234.08 7.02009C234.329 6.52354 234.993 6.85458 234.329 6.35802C233.831 7.18561 232.918 6.02699 232.254 6.10975C232.171 6.77182 230.844 6.27527 229.765 6.35802C229.848 6.10975 227.856 5.77871 226.861 5.44768V5.36492C226.612 6.02699 225.616 5.86147 224.869 5.86147C224.952 5.44768 225.118 5.28216 225.533 5.11665H224.869C224.703 5.28216 224.454 5.44768 224.04 5.44768L224.288 4.95113C223.376 4.86837 222.38 5.36492 221.218 4.95113C221.135 5.44768 222.048 6.35803 220.803 6.6063C220.803 6.35803 220.803 5.86147 221.135 5.77871C221.052 5.77871 220.72 5.94423 220.554 5.86147L221.052 5.44768C220.554 5.1994 220.72 5.77871 220.306 5.69596C220.306 5.36492 219.974 5.36492 220.057 5.11665C220.14 5.11665 220.388 5.28216 220.637 5.1994C220.14 5.11665 219.559 4.78561 219.393 4.53734C219.393 4.78561 219.393 5.03389 218.978 5.03389C218.065 4.95113 218.729 4.53734 218.148 4.28906C217.899 4.53734 217.318 4.2063 217.318 4.78561C217.069 4.78561 216.986 4.53734 216.903 4.37182C216.406 4.62009 214.663 4.28906 215.161 4.86837L215.244 4.95113H215.161C213.584 5.36492 211.925 4.37182 210.348 4.53734V4.37182C209.435 4.53734 208.274 4.37182 207.61 4.70285C207.361 4.70285 206.946 4.28906 207.112 4.12354C206.365 4.2063 206.282 4.37182 205.287 4.04078C206.033 3.79251 205.038 3.70975 206.033 3.87527C205.121 3.62699 204.955 3.37871 203.876 3.79251C204.208 3.37871 203.212 3.13044 202.797 3.29596L203.461 3.70975C202.963 3.70975 202.548 3.70975 202.133 3.62699L202.382 3.04768C200.557 2.13733 198.897 4.12354 197.57 2.7994C197.072 3.2132 198.565 3.13044 198.068 3.62699C197.238 3.46147 196.325 2.55113 196.076 2.55113C194.914 2.13734 194.914 3.37871 193.67 3.13044C193.836 3.37871 193.919 3.95803 193.006 4.12354C192.176 4.04078 192.01 3.13044 192.508 2.96492C192.757 2.96492 192.84 3.04768 192.84 3.13044C193.089 3.04768 193.504 2.96492 193.172 2.71665L193.089 2.96492C192.674 2.71665 191.512 2.71665 191.761 2.30285C191.097 2.46837 191.429 2.63389 191.927 2.7994C190.848 2.38561 190.185 2.71665 189.023 2.46837C189.189 2.63389 189.355 2.88216 189.189 2.88216C187.529 2.55113 188.442 3.29596 187.28 3.29596C186.617 2.96492 187.529 2.46837 186.368 2.71665C185.704 2.46837 186.285 2.13733 186.534 1.97182C185.455 2.38561 184.625 1.55802 183.961 1.47527L184.542 1.30975C184.21 1.39251 183.961 1.39251 183.629 1.39251L183.961 1.88906C183.629 1.8063 183.38 1.8063 183.38 1.55802C183.049 1.8063 183.629 2.30285 182.966 2.71665C182.551 2.46837 181.638 2.88216 181.555 2.30285C182.883 2.55113 181.389 1.72354 182.551 1.64078C182.302 1.72354 182.053 1.72354 181.721 1.64078C181.638 1.55802 181.804 1.55802 181.887 1.47527C180.642 0.895956 181.306 2.13734 179.895 2.05458C180.061 1.72354 179.646 1.39251 179.398 1.47527C179.978 1.47527 179.646 2.05458 179.149 2.30285C178.319 2.05458 178.236 2.46837 177.738 2.38561L178.236 2.55113C178.07 2.88216 177.655 2.7994 176.991 2.88216C176.908 2.63389 177.572 2.71665 177.323 2.63389C176.659 3.2132 175.83 1.97182 174.917 2.30285C174.502 2.05458 174.917 1.64078 174.502 1.47527C173.423 1.88906 173.423 0.978714 172.262 1.30975C172.593 1.8063 172.593 1.64078 171.847 2.05458L173.672 1.8063L172.593 2.22009C173.174 2.22009 173.755 1.97182 174.087 2.05458C173.506 2.38561 173.589 2.30285 173.838 2.63389C173.091 1.97182 172.344 2.96492 171.515 2.46837L171.598 1.39251C170.353 0.895956 169.274 1.88906 167.615 1.55802L168.113 1.72354C167.864 2.13734 167.117 1.72354 166.536 1.88906C166.619 1.55802 166.287 1.39251 166.038 1.14423C166.038 1.39251 164.794 1.06147 164.628 1.8063L163.881 1.30975C162.553 1.06147 162.304 2.30285 160.977 2.13734C161.391 1.72354 160.811 1.47527 161.64 1.22699C161.225 1.22699 160.811 1.14423 160.811 1.39251C160.562 1.14423 159.566 1.88906 159.234 1.47527C159.068 1.64078 158.985 2.05458 158.487 1.97182C158.404 1.88906 158.487 1.8063 158.487 1.8063C158.487 1.97182 157.74 2.05458 158.155 2.46837C156.828 1.30975 154.421 2.55113 153.26 1.47527C152.347 1.55802 151.185 1.72354 150.272 1.72354C150.355 1.64078 150.272 1.55802 150.438 1.55802C149.277 1.22699 149.692 2.63389 148.364 2.22009C147.7 1.64078 149.111 1.88906 148.613 1.64078C148.447 0.399404 146.953 1.8063 146.041 1.06147L146.29 0.978714C145.626 0.564921 144.63 1.47527 143.468 1.39251C143.468 1.39251 143.551 1.30975 143.468 1.22699C142.721 1.88906 141.228 2.05458 140.149 2.22009C140.481 1.72354 140.647 1.97182 140.398 1.47527C139.9 1.55802 140.564 2.22009 139.568 2.38561C139.236 2.13733 138.573 1.88906 138.407 1.39251H139.319C138.822 0.730439 138.158 1.39251 137.66 1.30975L137.743 0.978714C136.332 1.06147 136.332 1.8063 134.839 1.8063L135.005 2.05458C134.175 2.7994 134.341 1.64078 133.511 2.22009L133.262 1.47527C132.681 1.64078 131.354 2.22009 130.358 2.38561C130.939 1.8063 132.017 1.55802 132.764 1.22699C132.183 1.22699 130.939 1.30975 130.607 1.64078C130.856 1.55802 131.105 1.39251 131.354 1.47527C130.69 2.05458 129.86 2.38561 128.781 2.38561C128.947 0.978714 125.96 2.05458 125.13 0.978714C123.222 1.55802 121.313 0.813197 119.073 0.978714C119.903 2.05458 118.409 1.06147 118.575 2.13734C118.077 2.22009 117.828 2.22009 117.828 2.13734L116.252 1.47527C115.837 1.14423 116.749 1.22699 116.667 0.978714C115.505 0.895956 116.169 0.482163 115.422 0.233887C115.588 0.64768 115.007 0.813197 114.426 0.730438L115.339 1.22699C113.762 1.88906 113.928 0.316645 112.352 0.978714L112.85 0.564921C112.02 0.813197 109.779 0.64768 109.033 1.64078C108.867 1.47527 108.701 1.22699 109.033 1.14423C107.041 1.06147 104.718 2.30285 103.141 1.8063L103.307 1.55802C102.975 1.64078 102.726 2.13734 102.228 1.88906C102.228 1.8063 102.394 1.64078 102.228 1.55802C102.062 1.64078 101.316 2.05458 100.818 1.97182L101.233 1.64078C99.3242 1.39251 98.3285 2.55113 96.7519 2.7994C96.7519 1.97182 95.1753 1.8063 94.4285 1.72354V1.64078C92.1881 1.64078 90.6945 2.55113 88.6201 2.96492C87.2924 2.13734 84.2223 2.88216 82.1478 2.55113C82.4797 2.71665 82.1478 3.2132 81.8159 3.29596C81.318 3.13044 80.4883 3.95802 80.5712 3.2132H80.7372C80.3223 2.46837 79.3266 2.7994 78.5798 2.7994L78.4968 3.79251C76.3394 2.46837 73.2692 4.70285 72.0246 3.54423C71.5267 3.79251 70.9458 3.87527 70.448 4.12354V3.62699C69.1203 3.62699 68.3735 3.62699 66.714 3.87527L67.0459 3.46147C66.1331 3.54423 65.9672 5.11665 65.1374 5.1994L64.7225 4.45458C63.063 4.62009 61.3204 4.04078 59.8268 4.95113C59.8268 4.86837 59.9098 4.62009 60.1588 4.53734C59.412 4.62009 57.0886 4.28906 57.5035 5.36492C57.4205 4.62009 55.8439 5.44768 54.9312 5.86147L55.0142 5.36492C54.3503 6.10975 54.3503 6.27527 53.2716 6.52354C53.0227 6.44078 53.0227 6.10975 53.3546 6.19251C52.5248 6.02699 52.7738 6.77182 51.695 6.52354L52.027 6.19251C51.1972 6.19251 51.2802 6.35802 50.8653 6.85458C50.3674 7.10285 49.2057 6.85458 49.0398 6.44078C48.9568 6.77182 48.5419 7.18561 48.044 7.10285C47.9611 6.93734 48.127 6.77182 48.21 6.77182C46.7994 6.52354 46.1355 7.51665 45.1398 7.10285C45.1398 6.93734 45.0568 6.85458 44.9739 6.77182C46.1355 6.68906 47.0483 6.68906 46.9653 6.68906C46.9653 6.19251 45.9696 6.19251 46.7164 5.44768C46.0526 5.86147 44.8079 6.77182 43.8952 6.6063C43.8122 6.52354 43.8122 6.52354 43.7292 6.44078L43.8122 6.27527C43.5632 6.27527 43.3973 6.27527 43.2313 6.35802C42.8994 6.27527 42.7335 6.27527 42.4845 6.27527C42.3186 5.86147 41.4058 6.10975 40.9909 6.19251C41.0739 6.68906 40.4931 6.68906 41.0739 7.10285C40.9909 7.10285 41.1569 7.02009 41.4888 7.02009C41.5718 7.02009 41.6548 7.02009 41.6548 6.93734C41.6548 6.93734 41.6548 6.93734 41.6548 7.02009C41.9867 7.02009 42.3186 6.93734 42.8164 6.93734C42.3186 7.02009 41.9867 7.26837 41.4888 7.02009C41.2399 7.35113 41.0739 7.76492 40.908 7.93044C40.2441 7.26837 38.9995 6.93734 38.8335 6.44078C37.5059 6.85458 35.5974 6.85458 34.7676 7.84768C34.3527 8.0132 34.2697 7.5994 34.1038 7.43389C34.3527 7.35113 34.6017 7.35113 34.6846 7.18561C33.9378 7.51665 32.3613 7.43389 32.1953 8.09596C31.1996 7.84768 32.6932 7.43389 31.3655 7.5994L31.5315 7.35113C28.7932 6.35803 27.2167 9.25458 24.2295 7.84768C24.3954 7.93044 24.5614 8.0132 24.5614 8.09596C21.1593 7.51665 17.5083 8.67527 14.2721 7.51665C13.3594 7.26837 13.1934 7.68216 12.6126 8.0132L12.4466 7.5994L11.4509 8.17871C10.0403 8.50975 9.12754 6.68906 7.30203 7.35113L7.46798 7.76492C6.80416 7.5994 5.39354 7.76492 5.5595 7.35113C5.47652 7.35113 5.31057 7.68216 5.14461 7.43389V7.10285C4.56377 7.18561 4.0659 7.35113 3.48506 7.43389C2.32337 7.10285 3.81697 6.35802 2.07444 6.02699C1.41062 6.02699 0.0829778 6.6063 0.33191 6.85458C0.580843 6.93734 0.995731 7.10285 0.995731 7.43389L0.33191 7.51665C0.0829778 8.34423 -0.497866 9.17182 0.912754 9.9994L1.99146 9.58561L2.2404 10.0822L1.32764 9.9994C1.74253 10.496 2.15742 10.1649 2.48933 9.9994C2.57231 10.2477 2.65528 10.4132 2.90422 10.496L4.14888 9.75113C4.23186 10.0822 3.56804 10.4132 4.31483 10.6615C4.8127 10.3304 3.89995 9.83389 4.72972 9.66837C5.14461 10.1649 4.97866 10.4132 5.64248 10.1649C5.72545 10.4132 5.5595 10.496 5.31057 10.5787C5.89141 10.3304 6.72119 10.5787 7.0531 10.1649C7.55096 10.7442 8.79563 10.2477 8.71265 10.9925C8.8786 10.827 9.70838 10.4132 10.2062 10.4132C9.21051 11.3235 12.0318 10.5787 11.6998 11.6546C12.4466 10.827 14.1062 11.4063 15.2679 10.9097C15.1849 10.9925 15.1019 11.0753 14.936 11.0753C15.5998 11.158 15.7657 11.4891 16.1806 11.6546C16.2636 10.9097 17.3423 10.7442 17.8402 10.3304C18.587 11.0753 17.3423 11.158 17.5913 11.9029C17.5913 11.3235 19.0019 11.3235 18.7529 10.827C19.3338 11.2408 19.2508 11.0753 19.5827 11.6546C19.6657 10.7442 20.1636 11.4891 20.6614 10.9925C21.5742 11.4063 20.9104 11.8201 21.8231 11.5718C22.238 11.9029 21.4082 12.2339 21.4082 12.2339ZM44.31 9.66837C44.1441 9.66837 43.9781 9.75113 43.8122 9.75113C43.8951 9.75113 44.0611 9.66837 44.31 9.66837ZM46.2185 9.50285C45.9696 9.50285 45.7207 9.50285 45.3887 9.58561C45.3058 9.42009 45.3887 9.25458 45.5547 9.17182C45.4717 9.33734 45.8866 9.42009 46.2185 9.50285ZM41.9037 6.19251C42.2356 6.10975 42.3186 6.19251 42.3186 6.27527C42.1526 6.27527 41.9867 6.35802 41.8207 6.35802V6.44078C41.8207 6.35802 41.8207 6.27527 41.9037 6.19251Z" fill="white"/>
</svg>
